<svg xmlns="http://www.w3.org/2000/svg" width="532" height="370" viewBox="0 0 532 370">
<style>
text{font-family:'SF Mono', ui-monospace, Menlo, Consolas, 'DejaVu Sans Mono', 'Liberation Mono', 'Noto Sans Mono', monospace;font-size:14px;white-space:pre;direction:ltr;unicode-bidi:bidi-override;font-variant-ligatures:none;font-kerning:none}
.t0{fill:#f6f6f6;font-weight:bold}
.t1{fill:#d4a72c}
.t2{fill:#9c9c9c}
.t3{fill:#686868}
.t4{fill:#e4e4e4}
.t5{fill:#e5675f;font-weight:bold}
.t6{fill:#e4e4e4;font-weight:bold}
.t7{fill:#111111;font-weight:bold}
</style>
<rect x="0.5" y="0.5" width="531" height="369" rx="9" fill="#111111" stroke="#373737"/>
<path d="M0.5 30 V9.5 A9 9 0 0 1 9.5 0.5 H522.5 A9 9 0 0 1 531.5 9.5 V30 Z" fill="#1f1f1f"/>
<rect x="0.5" y="30" width="531" height="1" fill="#373737"/>
<circle cx="18" cy="15.5" r="5.5" fill="#4a4a4a"/>
<circle cx="36" cy="15.5" r="5.5" fill="#4a4a4a"/>
<circle cx="54" cy="15.5" r="5.5" fill="#4a4a4a"/>
<text x="266" y="19.8" text-anchor="middle" style="font-family:-apple-system,'Segoe UI',system-ui,'DejaVu Sans',sans-serif;font-size:12.5px;fill:#949494;direction:ltr">astrolabe</text>
<g shape-rendering="crispEdges">
<rect x="39.2" y="180" width="453.9" height="18.3" fill="#181818"/>
<rect x="14" y="342" width="453.9" height="18.3" fill="#1a1a1a"/>
<rect x="467.6" y="342" width="50.7" height="18.3" fill="#d4a72c"/>
</g>
<g>
<text class="t0" x="39.2" y="67.6">L</text>
<text class="t0" x="47.6" y="67.6">a</text>
<text class="t0" x="56" y="67.6">n</text>
<text class="t0" x="64.4" y="67.6">t</text>
<text class="t0" x="72.8" y="67.6">e</text>
<text class="t0" x="81.2" y="67.6">r</text>
<text class="t0" x="89.6" y="67.6">n</text>
<text class="t0" x="106.4" y="67.6">c</text>
<text class="t0" x="114.8" y="67.6">u</text>
<text class="t0" x="123.2" y="67.6">t</text>
<text class="t0" x="131.6" y="67.6">o</text>
<text class="t0" x="140" y="67.6">v</text>
<text class="t0" x="148.4" y="67.6">e</text>
<text class="t0" x="156.8" y="67.6">r</text>
<text class="t1" x="39.2" y="85.6">#</text>
<text class="t2" x="47.6" y="85.6">r</text>
<text class="t2" x="56" y="85.6">u</text>
<text class="t2" x="64.4" y="85.6">n</text>
<text class="t2" x="72.8" y="85.6">b</text>
<text class="t2" x="81.2" y="85.6">o</text>
<text class="t2" x="89.6" y="85.6">o</text>
<text class="t2" x="98" y="85.6">k</text>
<text class="t1" x="114.8" y="85.6">#</text>
<text class="t2" x="123.2" y="85.6">p</text>
<text class="t2" x="131.6" y="85.6">r</text>
<text class="t2" x="140" y="85.6">o</text>
<text class="t2" x="148.4" y="85.6">j</text>
<text class="t2" x="156.8" y="85.6">e</text>
<text class="t2" x="165.2" y="85.6">c</text>
<text class="t2" x="173.6" y="85.6">t</text>
<text class="t2" x="182" y="85.6">/</text>
<text class="t2" x="190.4" y="85.6">l</text>
<text class="t2" x="198.8" y="85.6">a</text>
<text class="t2" x="207.2" y="85.6">n</text>
<text class="t2" x="215.6" y="85.6">t</text>
<text class="t2" x="224" y="85.6">e</text>
<text class="t2" x="232.4" y="85.6">r</text>
<text class="t2" x="240.8" y="85.6">n</text>
<text class="t3" x="257.6" y="85.6">·</text>
<text class="t2" x="274.4" y="85.6">9</text>
<text class="t2" x="291.2" y="85.6">b</text>
<text class="t2" x="299.6" y="85.6">a</text>
<text class="t2" x="308" y="85.6">c</text>
<text class="t2" x="316.4" y="85.6">k</text>
<text class="t2" x="324.8" y="85.6">l</text>
<text class="t2" x="333.2" y="85.6">i</text>
<text class="t2" x="341.6" y="85.6">n</text>
<text class="t2" x="350" y="85.6">k</text>
<text class="t2" x="358.4" y="85.6">s</text>
<text class="t3" x="22.4" y="121.6">▸</text>
<text class="t3" x="39.2" y="121.6">p</text>
<text class="t3" x="47.6" y="121.6">r</text>
<text class="t3" x="56" y="121.6">o</text>
<text class="t3" x="64.4" y="121.6">p</text>
<text class="t3" x="72.8" y="121.6">e</text>
<text class="t3" x="81.2" y="121.6">r</text>
<text class="t3" x="89.6" y="121.6">t</text>
<text class="t3" x="98" y="121.6">i</text>
<text class="t3" x="106.4" y="121.6">e</text>
<text class="t3" x="114.8" y="121.6">s</text>
<text class="t3" x="131.6" y="121.6">·</text>
<text class="t3" x="148.4" y="121.6">2</text>
<text class="t4" x="39.2" y="157.6">M</text>
<text class="t4" x="47.6" y="157.6">o</text>
<text class="t4" x="56" y="157.6">v</text>
<text class="t4" x="64.4" y="157.6">e</text>
<text class="t4" x="72.8" y="157.6">s</text>
<text class="t4" x="89.6" y="157.6">t</text>
<text class="t4" x="98" y="157.6">h</text>
<text class="t4" x="106.4" y="157.6">e</text>
<text class="t4" x="123.2" y="157.6">c</text>
<text class="t4" x="131.6" y="157.6">o</text>
<text class="t4" x="140" y="157.6">n</text>
<text class="t4" x="148.4" y="157.6">s</text>
<text class="t4" x="156.8" y="157.6">u</text>
<text class="t4" x="165.2" y="157.6">m</text>
<text class="t4" x="173.6" y="157.6">e</text>
<text class="t4" x="182" y="157.6">r</text>
<text class="t4" x="190.4" y="157.6">s</text>
<text class="t4" x="207.2" y="157.6">o</text>
<text class="t4" x="215.6" y="157.6">f</text>
<text class="t4" x="232.4" y="157.6">o</text>
<text class="t4" x="240.8" y="157.6">n</text>
<text class="t4" x="249.2" y="157.6">e</text>
<text class="t4" x="266" y="157.6">q</text>
<text class="t4" x="274.4" y="157.6">u</text>
<text class="t4" x="282.8" y="157.6">e</text>
<text class="t4" x="291.2" y="157.6">u</text>
<text class="t4" x="299.6" y="157.6">e</text>
<text class="t4" x="316.4" y="157.6">f</text>
<text class="t4" x="324.8" y="157.6">r</text>
<text class="t4" x="333.2" y="157.6">o</text>
<text class="t4" x="341.6" y="157.6">m</text>
<text class="t4" x="358.4" y="157.6">K</text>
<text class="t4" x="366.8" y="157.6">e</text>
<text class="t4" x="375.2" y="157.6">s</text>
<text class="t4" x="383.6" y="157.6">t</text>
<text class="t4" x="392" y="157.6">r</text>
<text class="t4" x="400.4" y="157.6">e</text>
<text class="t4" x="408.8" y="157.6">l</text>
<text class="t4" x="425.6" y="157.6">t</text>
<text class="t4" x="434" y="157.6">o</text>
<text class="t4" x="39.2" y="175.6">L</text>
<text class="t4" x="47.6" y="175.6">a</text>
<text class="t4" x="56" y="175.6">n</text>
<text class="t4" x="64.4" y="175.6">t</text>
<text class="t4" x="72.8" y="175.6">e</text>
<text class="t4" x="81.2" y="175.6">r</text>
<text class="t4" x="89.6" y="175.6">n</text>
<text class="t4" x="98" y="175.6">.</text>
<text class="t4" x="114.8" y="175.6">R</text>
<text class="t4" x="123.2" y="175.6">u</text>
<text class="t4" x="131.6" y="175.6">n</text>
<text class="t4" x="148.4" y="175.6">i</text>
<text class="t4" x="156.8" y="175.6">t</text>
<text class="t4" x="173.6" y="175.6">o</text>
<text class="t4" x="182" y="175.6">n</text>
<text class="t4" x="190.4" y="175.6">c</text>
<text class="t4" x="198.8" y="175.6">e</text>
<text class="t4" x="215.6" y="175.6">p</text>
<text class="t4" x="224" y="175.6">e</text>
<text class="t4" x="232.4" y="175.6">r</text>
<text class="t4" x="249.2" y="175.6">q</text>
<text class="t4" x="257.6" y="175.6">u</text>
<text class="t4" x="266" y="175.6">e</text>
<text class="t4" x="274.4" y="175.6">u</text>
<text class="t4" x="282.8" y="175.6">e</text>
<text class="t4" x="291.2" y="175.6">,</text>
<text class="t4" x="308" y="175.6">s</text>
<text class="t4" x="316.4" y="175.6">m</text>
<text class="t4" x="324.8" y="175.6">a</text>
<text class="t4" x="333.2" y="175.6">l</text>
<text class="t4" x="341.6" y="175.6">l</text>
<text class="t4" x="350" y="175.6">e</text>
<text class="t4" x="358.4" y="175.6">s</text>
<text class="t4" x="366.8" y="175.6">t</text>
<text class="t4" x="383.6" y="175.6">q</text>
<text class="t4" x="392" y="175.6">u</text>
<text class="t4" x="400.4" y="175.6">e</text>
<text class="t4" x="408.8" y="175.6">u</text>
<text class="t4" x="417.2" y="175.6">e</text>
<text class="t4" x="434" y="175.6">f</text>
<text class="t4" x="442.4" y="175.6">i</text>
<text class="t4" x="450.8" y="175.6">r</text>
<text class="t4" x="459.2" y="175.6">s</text>
<text class="t4" x="467.6" y="175.6">t</text>
<text class="t4" x="476" y="175.6">.</text>
<text class="t4" x="39.2" y="193.6">E</text>
<text class="t4" x="47.6" y="193.6">x</text>
<text class="t4" x="56" y="193.6">p</text>
<text class="t4" x="64.4" y="193.6">e</text>
<text class="t4" x="72.8" y="193.6">c</text>
<text class="t4" x="81.2" y="193.6">t</text>
<text class="t4" x="98" y="193.6">1</text>
<text class="t4" x="106.4" y="193.6">0</text>
<text class="t4" x="114.8" y="193.6">–</text>
<text class="t4" x="123.2" y="193.6">1</text>
<text class="t4" x="131.6" y="193.6">5</text>
<text class="t4" x="148.4" y="193.6">m</text>
<text class="t4" x="156.8" y="193.6">i</text>
<text class="t4" x="165.2" y="193.6">n</text>
<text class="t4" x="173.6" y="193.6">u</text>
<text class="t4" x="182" y="193.6">t</text>
<text class="t4" x="190.4" y="193.6">e</text>
<text class="t4" x="198.8" y="193.6">s</text>
<text class="t4" x="215.6" y="193.6">p</text>
<text class="t4" x="224" y="193.6">e</text>
<text class="t4" x="232.4" y="193.6">r</text>
<text class="t4" x="249.2" y="193.6">q</text>
<text class="t4" x="257.6" y="193.6">u</text>
<text class="t4" x="266" y="193.6">e</text>
<text class="t4" x="274.4" y="193.6">u</text>
<text class="t4" x="282.8" y="193.6">e</text>
<text class="t4" x="291.2" y="193.6">,</text>
<text class="t4" x="308" y="193.6">m</text>
<text class="t4" x="316.4" y="193.6">o</text>
<text class="t4" x="324.8" y="193.6">s</text>
<text class="t4" x="333.2" y="193.6">t</text>
<text class="t4" x="350" y="193.6">o</text>
<text class="t4" x="358.4" y="193.6">f</text>
<text class="t4" x="375.2" y="193.6">i</text>
<text class="t4" x="383.6" y="193.6">t</text>
<text class="t4" x="400.4" y="193.6">w</text>
<text class="t4" x="408.8" y="193.6">a</text>
<text class="t4" x="417.2" y="193.6">i</text>
<text class="t4" x="425.6" y="193.6">t</text>
<text class="t4" x="434" y="193.6">i</text>
<text class="t4" x="442.4" y="193.6">n</text>
<text class="t4" x="450.8" y="193.6">g</text>
<text class="t4" x="467.6" y="193.6">f</text>
<text class="t4" x="476" y="193.6">o</text>
<text class="t4" x="484.4" y="193.6">r</text>
<text class="t4" x="39.2" y="211.6">K</text>
<text class="t4" x="47.6" y="211.6">e</text>
<text class="t4" x="56" y="211.6">s</text>
<text class="t4" x="64.4" y="211.6">t</text>
<text class="t4" x="72.8" y="211.6">r</text>
<text class="t4" x="81.2" y="211.6">e</text>
<text class="t4" x="89.6" y="211.6">l</text>
<text class="t4" x="106.4" y="211.6">t</text>
<text class="t4" x="114.8" y="211.6">o</text>
<text class="t4" x="131.6" y="211.6">d</text>
<text class="t4" x="140" y="211.6">r</text>
<text class="t4" x="148.4" y="211.6">a</text>
<text class="t4" x="156.8" y="211.6">i</text>
<text class="t4" x="165.2" y="211.6">n</text>
<text class="t4" x="173.6" y="211.6">.</text>
<text class="t5" x="56" y="247.6">✗</text>
<text class="t5" x="72.8" y="247.6">S</text>
<text class="t5" x="81.2" y="247.6">t</text>
<text class="t5" x="89.6" y="247.6">o</text>
<text class="t5" x="98" y="247.6">p</text>
<text class="t5" x="114.8" y="247.6">i</text>
<text class="t5" x="123.2" y="247.6">f</text>
<text class="t1" x="56" y="265.6">•</text>
<text class="t4" x="72.8" y="265.6">c</text>
<text class="t4" x="81.2" y="265.6">o</text>
<text class="t4" x="89.6" y="265.6">n</text>
<text class="t4" x="98" y="265.6">s</text>
<text class="t4" x="106.4" y="265.6">u</text>
<text class="t4" x="114.8" y="265.6">m</text>
<text class="t4" x="123.2" y="265.6">e</text>
<text class="t4" x="131.6" y="265.6">r</text>
<text class="t4" x="148.4" y="265.6">l</text>
<text class="t4" x="156.8" y="265.6">a</text>
<text class="t4" x="165.2" y="265.6">g</text>
<text class="t4" x="182" y="265.6">o</text>
<text class="t4" x="190.4" y="265.6">n</text>
<text class="t4" x="207.2" y="265.6">a</text>
<text class="t4" x="215.6" y="265.6">n</text>
<text class="t4" x="224" y="265.6">y</text>
<text class="t4" x="240.8" y="265.6">L</text>
<text class="t4" x="249.2" y="265.6">a</text>
<text class="t4" x="257.6" y="265.6">n</text>
<text class="t4" x="266" y="265.6">t</text>
<text class="t4" x="274.4" y="265.6">e</text>
<text class="t4" x="282.8" y="265.6">r</text>
<text class="t4" x="291.2" y="265.6">n</text>
<text class="t4" x="308" y="265.6">q</text>
<text class="t4" x="316.4" y="265.6">u</text>
<text class="t4" x="324.8" y="265.6">e</text>
<text class="t4" x="333.2" y="265.6">u</text>
<text class="t4" x="341.6" y="265.6">e</text>
<text class="t4" x="358.4" y="265.6">i</text>
<text class="t4" x="366.8" y="265.6">s</text>
<text class="t4" x="383.6" y="265.6">a</text>
<text class="t4" x="392" y="265.6">b</text>
<text class="t4" x="400.4" y="265.6">o</text>
<text class="t4" x="408.8" y="265.6">v</text>
<text class="t4" x="417.2" y="265.6">e</text>
<text class="t6" x="434" y="265.6">5</text>
<text class="t6" x="72.8" y="283.6">m</text>
<text class="t6" x="81.2" y="283.6">i</text>
<text class="t6" x="89.6" y="283.6">n</text>
<text class="t6" x="98" y="283.6">u</text>
<text class="t6" x="106.4" y="283.6">t</text>
<text class="t6" x="114.8" y="283.6">e</text>
<text class="t6" x="123.2" y="283.6">s</text>
<text class="t4" x="131.6" y="283.6">,</text>
<text class="t4" x="148.4" y="283.6">o</text>
<text class="t4" x="156.8" y="283.6">r</text>
<text class="t1" x="56" y="301.6">•</text>
<text class="t4" x="72.8" y="301.6">t</text>
<text class="t4" x="81.2" y="301.6">h</text>
<text class="t4" x="89.6" y="301.6">e</text>
<text class="t4" x="106.4" y="301.6">e</text>
<text class="t4" x="114.8" y="301.6">r</text>
<text class="t4" x="123.2" y="301.6">r</text>
<text class="t4" x="131.6" y="301.6">o</text>
<text class="t4" x="140" y="301.6">r</text>
<text class="t4" x="156.8" y="301.6">r</text>
<text class="t4" x="165.2" y="301.6">a</text>
<text class="t4" x="173.6" y="301.6">t</text>
<text class="t4" x="182" y="301.6">e</text>
<text class="t4" x="198.8" y="301.6">o</text>
<text class="t4" x="207.2" y="301.6">n</text>
<text class="t4" x="224" y="301.6">t</text>
<text class="t4" x="232.4" y="301.6">h</text>
<text class="t4" x="240.8" y="301.6">e</text>
<text class="t4" x="257.6" y="301.6">q</text>
<text class="t4" x="266" y="301.6">u</text>
<text class="t4" x="274.4" y="301.6">e</text>
<text class="t4" x="282.8" y="301.6">u</text>
<text class="t4" x="291.2" y="301.6">e</text>
<text class="t4" x="299.6" y="301.6">&#39;</text>
<text class="t4" x="308" y="301.6">s</text>
<text class="t4" x="324.8" y="301.6">c</text>
<text class="t4" x="333.2" y="301.6">o</text>
<text class="t4" x="341.6" y="301.6">n</text>
<text class="t4" x="350" y="301.6">s</text>
<text class="t4" x="358.4" y="301.6">u</text>
<text class="t4" x="366.8" y="301.6">m</text>
<text class="t4" x="375.2" y="301.6">e</text>
<text class="t4" x="383.6" y="301.6">r</text>
<text class="t4" x="392" y="301.6">s</text>
<text class="t4" x="408.8" y="301.6">d</text>
<text class="t4" x="417.2" y="301.6">o</text>
<text class="t4" x="425.6" y="301.6">u</text>
<text class="t4" x="434" y="301.6">b</text>
<text class="t4" x="442.4" y="301.6">l</text>
<text class="t4" x="450.8" y="301.6">e</text>
<text class="t4" x="459.2" y="301.6">s</text>
<text class="t4" x="467.6" y="301.6">,</text>
<text class="t4" x="72.8" y="319.6">o</text>
<text class="t4" x="81.2" y="319.6">r</text>
<text class="t1" x="56" y="337.6">•</text>
<text class="t4" x="72.8" y="337.6">a</text>
<text class="t4" x="81.2" y="337.6">n</text>
<text class="t4" x="89.6" y="337.6">y</text>
<text class="t4" x="98" y="337.6">o</text>
<text class="t4" x="106.4" y="337.6">n</text>
<text class="t4" x="114.8" y="337.6">e</text>
<text class="t4" x="131.6" y="337.6">o</text>
<text class="t4" x="140" y="337.6">n</text>
<text class="t4" x="156.8" y="337.6">t</text>
<text class="t4" x="165.2" y="337.6">h</text>
<text class="t4" x="173.6" y="337.6">e</text>
<text class="t4" x="190.4" y="337.6">c</text>
<text class="t4" x="198.8" y="337.6">a</text>
<text class="t4" x="207.2" y="337.6">l</text>
<text class="t4" x="215.6" y="337.6">l</text>
<text class="t4" x="232.4" y="337.6">a</text>
<text class="t4" x="240.8" y="337.6">s</text>
<text class="t4" x="249.2" y="337.6">k</text>
<text class="t4" x="257.6" y="337.6">s</text>
<text class="t4" x="274.4" y="337.6">y</text>
<text class="t4" x="282.8" y="337.6">o</text>
<text class="t4" x="291.2" y="337.6">u</text>
<text class="t4" x="308" y="337.6">t</text>
<text class="t4" x="316.4" y="337.6">o</text>
<text class="t4" x="324.8" y="337.6">.</text>
<text class="t1" x="22.4" y="355.6">✦</text>
<text class="t2" x="39.2" y="355.6">v</text>
<text class="t2" x="47.6" y="355.6">a</text>
<text class="t2" x="56" y="355.6">u</text>
<text class="t2" x="64.4" y="355.6">l</text>
<text class="t2" x="72.8" y="355.6">t</text>
<text class="t3" x="89.6" y="355.6">›</text>
<text class="t4" x="106.4" y="355.6">L</text>
<text class="t4" x="114.8" y="355.6">a</text>
<text class="t4" x="123.2" y="355.6">n</text>
<text class="t4" x="131.6" y="355.6">t</text>
<text class="t4" x="140" y="355.6">e</text>
<text class="t4" x="148.4" y="355.6">r</text>
<text class="t4" x="156.8" y="355.6">n</text>
<text class="t4" x="173.6" y="355.6">c</text>
<text class="t4" x="182" y="355.6">u</text>
<text class="t4" x="190.4" y="355.6">t</text>
<text class="t4" x="198.8" y="355.6">o</text>
<text class="t4" x="207.2" y="355.6">v</text>
<text class="t4" x="215.6" y="355.6">e</text>
<text class="t4" x="224" y="355.6">r</text>
<text class="t2" x="257.6" y="355.6">3</text>
<text class="t2" x="266" y="355.6">1</text>
<text class="t2" x="274.4" y="355.6">5</text>
<text class="t2" x="291.2" y="355.6">w</text>
<text class="t2" x="299.6" y="355.6">o</text>
<text class="t2" x="308" y="355.6">r</text>
<text class="t2" x="316.4" y="355.6">d</text>
<text class="t2" x="324.8" y="355.6">s</text>
<text class="t2" x="341.6" y="355.6">·</text>
<text class="t2" x="358.4" y="355.6">2</text>
<text class="t2" x="375.2" y="355.6">m</text>
<text class="t2" x="383.6" y="355.6">i</text>
<text class="t2" x="392" y="355.6">n</text>
<text class="t2" x="408.8" y="355.6">·</text>
<text class="t2" x="425.6" y="355.6">T</text>
<text class="t2" x="434" y="355.6">o</text>
<text class="t2" x="442.4" y="355.6">p</text>
<text class="t7" x="476" y="355.6">R</text>
<text class="t7" x="484.4" y="355.6">E</text>
<text class="t7" x="492.8" y="355.6">A</text>
<text class="t7" x="501.2" y="355.6">D</text>
</g>
<g>
<line x1="38.8" y1="99" x2="43.9" y2="99" stroke="#2c2c2c" stroke-width="1"/>
<line x1="42.9" y1="99" x2="48" y2="99" stroke="#2c2c2c" stroke-width="1"/>
<line x1="47.2" y1="99" x2="52.3" y2="99" stroke="#2c2c2c" stroke-width="1"/>
<line x1="51.3" y1="99" x2="56.4" y2="99" stroke="#2c2c2c" stroke-width="1"/>
<line x1="55.6" y1="99" x2="60.7" y2="99" stroke="#2c2c2c" stroke-width="1"/>
<line x1="59.7" y1="99" x2="64.8" y2="99" stroke="#2c2c2c" stroke-width="1"/>
<line x1="64" y1="99" x2="69.1" y2="99" stroke="#2c2c2c" stroke-width="1"/>
<line x1="68.1" y1="99" x2="73.2" y2="99" stroke="#2c2c2c" stroke-width="1"/>
<line x1="72.4" y1="99" x2="77.5" y2="99" stroke="#2c2c2c" stroke-width="1"/>
<line x1="76.5" y1="99" x2="81.6" y2="99" stroke="#2c2c2c" stroke-width="1"/>
<line x1="80.8" y1="99" x2="85.9" y2="99" stroke="#2c2c2c" stroke-width="1"/>
<line x1="84.9" y1="99" x2="90" y2="99" stroke="#2c2c2c" stroke-width="1"/>
<line x1="89.2" y1="99" x2="94.3" y2="99" stroke="#2c2c2c" stroke-width="1"/>
<line x1="93.3" y1="99" x2="98.4" y2="99" stroke="#2c2c2c" stroke-width="1"/>
<line x1="97.6" y1="99" x2="102.7" y2="99" stroke="#2c2c2c" stroke-width="1"/>
<line x1="101.7" y1="99" x2="106.8" y2="99" stroke="#2c2c2c" stroke-width="1"/>
<line x1="106" y1="99" x2="111.1" y2="99" stroke="#2c2c2c" stroke-width="1"/>
<line x1="110.1" y1="99" x2="115.2" y2="99" stroke="#2c2c2c" stroke-width="1"/>
<line x1="114.4" y1="99" x2="119.5" y2="99" stroke="#2c2c2c" stroke-width="1"/>
<line x1="118.5" y1="99" x2="123.6" y2="99" stroke="#2c2c2c" stroke-width="1"/>
<line x1="122.8" y1="99" x2="127.9" y2="99" stroke="#2c2c2c" stroke-width="1"/>
<line x1="126.9" y1="99" x2="132" y2="99" stroke="#2c2c2c" stroke-width="1"/>
<line x1="131.2" y1="99" x2="136.3" y2="99" stroke="#2c2c2c" stroke-width="1"/>
<line x1="135.3" y1="99" x2="140.4" y2="99" stroke="#2c2c2c" stroke-width="1"/>
<line x1="139.6" y1="99" x2="144.7" y2="99" stroke="#2c2c2c" stroke-width="1"/>
<line x1="143.7" y1="99" x2="148.8" y2="99" stroke="#2c2c2c" stroke-width="1"/>
<line x1="148" y1="99" x2="153.1" y2="99" stroke="#2c2c2c" stroke-width="1"/>
<line x1="152.1" y1="99" x2="157.2" y2="99" stroke="#2c2c2c" stroke-width="1"/>
<line x1="156.4" y1="99" x2="161.5" y2="99" stroke="#2c2c2c" stroke-width="1"/>
<line x1="160.5" y1="99" x2="165.6" y2="99" stroke="#2c2c2c" stroke-width="1"/>
<line x1="164.8" y1="99" x2="169.9" y2="99" stroke="#2c2c2c" stroke-width="1"/>
<line x1="168.9" y1="99" x2="174" y2="99" stroke="#2c2c2c" stroke-width="1"/>
<line x1="173.2" y1="99" x2="178.3" y2="99" stroke="#2c2c2c" stroke-width="1"/>
<line x1="177.3" y1="99" x2="182.4" y2="99" stroke="#2c2c2c" stroke-width="1"/>
<line x1="181.6" y1="99" x2="186.7" y2="99" stroke="#2c2c2c" stroke-width="1"/>
<line x1="185.7" y1="99" x2="190.8" y2="99" stroke="#2c2c2c" stroke-width="1"/>
<line x1="190" y1="99" x2="195.1" y2="99" stroke="#2c2c2c" stroke-width="1"/>
<line x1="194.1" y1="99" x2="199.2" y2="99" stroke="#2c2c2c" stroke-width="1"/>
<line x1="198.4" y1="99" x2="203.5" y2="99" stroke="#2c2c2c" stroke-width="1"/>
<line x1="202.5" y1="99" x2="207.6" y2="99" stroke="#2c2c2c" stroke-width="1"/>
<line x1="206.8" y1="99" x2="211.9" y2="99" stroke="#2c2c2c" stroke-width="1"/>
<line x1="210.9" y1="99" x2="216" y2="99" stroke="#2c2c2c" stroke-width="1"/>
<line x1="215.2" y1="99" x2="220.3" y2="99" stroke="#2c2c2c" stroke-width="1"/>
<line x1="219.3" y1="99" x2="224.4" y2="99" stroke="#2c2c2c" stroke-width="1"/>
<line x1="223.6" y1="99" x2="228.7" y2="99" stroke="#2c2c2c" stroke-width="1"/>
<line x1="227.7" y1="99" x2="232.8" y2="99" stroke="#2c2c2c" stroke-width="1"/>
<line x1="232" y1="99" x2="237.1" y2="99" stroke="#2c2c2c" stroke-width="1"/>
<line x1="236.1" y1="99" x2="241.2" y2="99" stroke="#2c2c2c" stroke-width="1"/>
<line x1="240.4" y1="99" x2="245.5" y2="99" stroke="#2c2c2c" stroke-width="1"/>
<line x1="244.5" y1="99" x2="249.6" y2="99" stroke="#2c2c2c" stroke-width="1"/>
<line x1="248.8" y1="99" x2="253.9" y2="99" stroke="#2c2c2c" stroke-width="1"/>
<line x1="252.9" y1="99" x2="258" y2="99" stroke="#2c2c2c" stroke-width="1"/>
<line x1="257.2" y1="99" x2="262.3" y2="99" stroke="#2c2c2c" stroke-width="1"/>
<line x1="261.3" y1="99" x2="266.4" y2="99" stroke="#2c2c2c" stroke-width="1"/>
<line x1="265.6" y1="99" x2="270.7" y2="99" stroke="#2c2c2c" stroke-width="1"/>
<line x1="269.7" y1="99" x2="274.8" y2="99" stroke="#2c2c2c" stroke-width="1"/>
<line x1="274" y1="99" x2="279.1" y2="99" stroke="#2c2c2c" stroke-width="1"/>
<line x1="278.1" y1="99" x2="283.2" y2="99" stroke="#2c2c2c" stroke-width="1"/>
<line x1="282.4" y1="99" x2="287.5" y2="99" stroke="#2c2c2c" stroke-width="1"/>
<line x1="286.5" y1="99" x2="291.6" y2="99" stroke="#2c2c2c" stroke-width="1"/>
<line x1="290.8" y1="99" x2="295.9" y2="99" stroke="#2c2c2c" stroke-width="1"/>
<line x1="294.9" y1="99" x2="300" y2="99" stroke="#2c2c2c" stroke-width="1"/>
<line x1="299.2" y1="99" x2="304.3" y2="99" stroke="#2c2c2c" stroke-width="1"/>
<line x1="303.3" y1="99" x2="308.4" y2="99" stroke="#2c2c2c" stroke-width="1"/>
<line x1="307.6" y1="99" x2="312.7" y2="99" stroke="#2c2c2c" stroke-width="1"/>
<line x1="311.7" y1="99" x2="316.8" y2="99" stroke="#2c2c2c" stroke-width="1"/>
<line x1="316" y1="99" x2="321.1" y2="99" stroke="#2c2c2c" stroke-width="1"/>
<line x1="320.1" y1="99" x2="325.2" y2="99" stroke="#2c2c2c" stroke-width="1"/>
<line x1="324.4" y1="99" x2="329.5" y2="99" stroke="#2c2c2c" stroke-width="1"/>
<line x1="328.5" y1="99" x2="333.6" y2="99" stroke="#2c2c2c" stroke-width="1"/>
<line x1="332.8" y1="99" x2="337.9" y2="99" stroke="#2c2c2c" stroke-width="1"/>
<line x1="336.9" y1="99" x2="342" y2="99" stroke="#2c2c2c" stroke-width="1"/>
<line x1="341.2" y1="99" x2="346.3" y2="99" stroke="#2c2c2c" stroke-width="1"/>
<line x1="345.3" y1="99" x2="350.4" y2="99" stroke="#2c2c2c" stroke-width="1"/>
<line x1="349.6" y1="99" x2="354.7" y2="99" stroke="#2c2c2c" stroke-width="1"/>
<line x1="353.7" y1="99" x2="358.8" y2="99" stroke="#2c2c2c" stroke-width="1"/>
<line x1="358" y1="99" x2="363.1" y2="99" stroke="#2c2c2c" stroke-width="1"/>
<line x1="362.1" y1="99" x2="367.2" y2="99" stroke="#2c2c2c" stroke-width="1"/>
<line x1="366.4" y1="99" x2="371.5" y2="99" stroke="#2c2c2c" stroke-width="1"/>
<line x1="370.5" y1="99" x2="375.6" y2="99" stroke="#2c2c2c" stroke-width="1"/>
<line x1="374.8" y1="99" x2="379.9" y2="99" stroke="#2c2c2c" stroke-width="1"/>
<line x1="378.9" y1="99" x2="384" y2="99" stroke="#2c2c2c" stroke-width="1"/>
<line x1="383.2" y1="99" x2="388.3" y2="99" stroke="#2c2c2c" stroke-width="1"/>
<line x1="387.3" y1="99" x2="392.4" y2="99" stroke="#2c2c2c" stroke-width="1"/>
<line x1="391.6" y1="99" x2="396.7" y2="99" stroke="#2c2c2c" stroke-width="1"/>
<line x1="395.7" y1="99" x2="400.8" y2="99" stroke="#2c2c2c" stroke-width="1"/>
<line x1="400" y1="99" x2="405.1" y2="99" stroke="#2c2c2c" stroke-width="1"/>
<line x1="404.1" y1="99" x2="409.2" y2="99" stroke="#2c2c2c" stroke-width="1"/>
<line x1="408.4" y1="99" x2="413.5" y2="99" stroke="#2c2c2c" stroke-width="1"/>
<line x1="412.5" y1="99" x2="417.6" y2="99" stroke="#2c2c2c" stroke-width="1"/>
<line x1="416.8" y1="99" x2="421.9" y2="99" stroke="#2c2c2c" stroke-width="1"/>
<line x1="420.9" y1="99" x2="426" y2="99" stroke="#2c2c2c" stroke-width="1"/>
<line x1="425.2" y1="99" x2="430.3" y2="99" stroke="#2c2c2c" stroke-width="1"/>
<line x1="429.3" y1="99" x2="434.4" y2="99" stroke="#2c2c2c" stroke-width="1"/>
<line x1="433.6" y1="99" x2="438.7" y2="99" stroke="#2c2c2c" stroke-width="1"/>
<line x1="437.7" y1="99" x2="442.8" y2="99" stroke="#2c2c2c" stroke-width="1"/>
<line x1="442" y1="99" x2="447.1" y2="99" stroke="#2c2c2c" stroke-width="1"/>
<line x1="446.1" y1="99" x2="451.2" y2="99" stroke="#2c2c2c" stroke-width="1"/>
<line x1="450.4" y1="99" x2="455.5" y2="99" stroke="#2c2c2c" stroke-width="1"/>
<line x1="454.5" y1="99" x2="459.6" y2="99" stroke="#2c2c2c" stroke-width="1"/>
<line x1="458.8" y1="99" x2="463.9" y2="99" stroke="#2c2c2c" stroke-width="1"/>
<line x1="462.9" y1="99" x2="468" y2="99" stroke="#2c2c2c" stroke-width="1"/>
<line x1="467.2" y1="99" x2="472.3" y2="99" stroke="#2c2c2c" stroke-width="1"/>
<line x1="471.3" y1="99" x2="476.4" y2="99" stroke="#2c2c2c" stroke-width="1"/>
<line x1="475.6" y1="99" x2="480.7" y2="99" stroke="#2c2c2c" stroke-width="1"/>
<line x1="479.7" y1="99" x2="484.8" y2="99" stroke="#2c2c2c" stroke-width="1"/>
<line x1="484" y1="99" x2="489.1" y2="99" stroke="#2c2c2c" stroke-width="1"/>
<line x1="488.1" y1="99" x2="493.2" y2="99" stroke="#2c2c2c" stroke-width="1"/>
<rect x="14" y="180" width="2.1" height="18.3" fill="#d4a72c"/>
<rect x="39.2" y="234" width="2.1" height="18.3" fill="#e5675f"/>
<rect x="39.2" y="252" width="2.1" height="18.3" fill="#e5675f"/>
<rect x="39.2" y="270" width="2.1" height="18.3" fill="#e5675f"/>
<rect x="39.2" y="288" width="2.1" height="18.3" fill="#e5675f"/>
<rect x="39.2" y="306" width="2.1" height="18.3" fill="#e5675f"/>
<rect x="39.2" y="324" width="2.1" height="18.3" fill="#e5675f"/>
</g>
</svg>
